<svg width="756" height="569" viewBox="137 149 756 569" version="1.1" xmlns="http://www.w3.org/2000/svg" xmlns:xlink="http://www.w3.org/1999/xlink" xml:space="preserve" xmlns:serif="http://www.serif.com/" style="fill-rule:evenodd;clip-rule:evenodd;stroke-linejoin:round;stroke-miterlimit:2;"><defs><linearGradient id="g" gradientUnits="userSpaceOnUse" x1="137" y1="433" x2="893" y2="433"><stop offset="0" stop-color="#F4E2A0"/><stop offset="0.5" stop-color="#A7D7C5"/><stop offset="1" stop-color="#F2B8CB"/></linearGradient></defs><g transform="matrix(8.385965,0,0,8.385965,638.331354,640.57259)"><g transform="matrix(1,0,0,1,43.405857,-34.104602)">
            <g transform="matrix(0,-0.755515,-0.786506,0,-39.432207,1.747969)">
                <path d="M-1.188,-1.188C-1.845,-1.188 -2.376,-0.656 -2.376,0C-2.376,0.656 -1.845,1.188 -1.188,1.188C-0.532,1.188 0,0.656 0,0C0,-0.656 -0.532,-1.188 -1.188,-1.188" style="fill:url(#g);fill-rule:nonzero;"/>
            </g>
            <g transform="matrix(0.786213,0.021471,-0.020625,0.755233,-20.303482,4.22089)">
                <path d="M0,29.153L-23.953,7.371L-20.36,2.565L4.264,23.985L0,29.153ZM6.641,21.57C5.864,21.014 -19.663,-2.016 -19.663,-2.016C-19.663,-2.016 -21.084,-0.535 -21.782,-0.871L-22.609,0.446L-21.394,1.557L-25.142,6.545C-25.142,6.545 -25.864,7.526 -24.985,8.353C-24.107,9.179 -0.724,30.264 -0.724,30.264C-0.724,30.264 0.181,31.169 1.008,30.264C1.834,29.361 6.796,23.054 6.796,23.054C6.796,23.054 7.416,22.125 6.641,21.57" style="fill:url(#g);fill-rule:nonzero;"/>
            </g>
            <g transform="matrix(-0.786492,-0.004542,0.004729,-0.755501,-58.825247,1.682955)">
                <path d="M0,29.153L-23.953,7.371L-20.36,2.565L4.264,23.985L0,29.153ZM6.641,21.57C5.864,21.014 -19.663,-2.016 -19.663,-2.016C-19.663,-2.016 -21.084,-0.535 -21.782,-0.871L-22.609,0.446L-21.394,1.557L-25.142,6.545C-25.142,6.545 -25.864,7.526 -24.985,8.353C-24.107,9.179 -0.724,30.264 -0.724,30.264C-0.724,30.264 0.181,31.169 1.008,30.264C1.834,29.361 6.796,23.054 6.796,23.054C6.796,23.054 7.416,22.125 6.641,21.57" style="fill:url(#g);fill-rule:nonzero;"/>
            </g>
            <g transform="matrix(0.870125,0,0,0.815297,-59.459981,5.594873)">
                <path d="M0,24.735L-2.894,21.84L15.847,-1.104L18.637,1.67L0,24.735ZM22.634,-1.242L21.74,-2.137L19.568,0.59L16.64,-2.344C16.64,-2.344 15.744,-3.136 15.02,-2.344C14.296,-1.551 -4.203,21.083 -4.203,21.083C-4.203,21.083 -4.823,21.84 -4.203,22.599C-3.583,23.357 0.275,27.181 0.275,27.181C0.275,27.181 0.758,27.871 1.274,27.181C1.792,26.492 21.888,2.1 21.888,2.1C21.888,2.1 21.415,-0.089 22.634,-1.242" style="fill:url(#g);fill-rule:nonzero;"/>
            </g>
            <g transform="matrix(-0.86978,-0.023526,0.02389,-0.814974,-19.551803,0.070116)">
                <path d="M0,24.735L-2.894,21.84L15.847,-1.104L18.637,1.67L0,24.735ZM22.634,-1.242L21.74,-2.137L19.568,0.59L16.64,-2.344C16.64,-2.344 15.744,-3.136 15.02,-2.344C14.296,-1.551 -4.203,21.083 -4.203,21.083C-4.203,21.083 -4.823,21.84 -4.203,22.599C-3.583,23.357 0.275,27.181 0.275,27.181C0.275,27.181 0.758,27.871 1.274,27.181C1.792,26.492 21.888,2.1 21.888,2.1C21.888,2.1 21.415,-0.089 22.634,-1.242" style="fill:url(#g);fill-rule:nonzero;"/>
            </g>
        </g></g></svg>