<?xml version="1.0" encoding="UTF-8" standalone="no"?>
<!DOCTYPE svg PUBLIC "-//W3C//DTD SVG 1.1//EN" "http://www.w3.org/Graphics/SVG/1.1/DTD/svg11.dtd">
<svg width="100%" height="100%" viewBox="0 0 780 545" version="1.1" xmlns="http://www.w3.org/2000/svg" xmlns:xlink="http://www.w3.org/1999/xlink" xml:space="preserve" xmlns:serif="http://www.serif.com/" style="fill-rule:evenodd;clip-rule:evenodd;stroke-linejoin:round;stroke-miterlimit:2;">
    <g id="Layer-1" serif:id="Layer 1" transform="matrix(4.166667,0,0,4.166667,0,0)">
        <g transform="matrix(1,0,0,1,109.3931,85.6876)">
            <path d="M0,9.921L0.827,1.792C0.827,1.792 21.979,-0.069 30.869,2.274L32.108,9.99L16.398,9.99L16.398,5.925C16.398,5.925 12.128,1.998 7.924,5.925L7.924,9.99L0,9.921Z" style="fill-rule:nonzero;"/>
        </g>
        <g transform="matrix(1,0,0,1,124.2593,77.2323)">
            <path d="M0,-9.214L0,2.141L-5.582,2.141L-5.582,-12.329L-3.531,-12.329L-7.7,-16.006L-14.057,-8.013L-14.057,6.488L-14.039,6.319C-14.039,6.319 7.061,4.463 15.968,6.792L15.968,4.871L0,-9.214Z" style="fill-rule:nonzero;"/>
        </g>
        <g transform="matrix(-1,0,0,1,236.911,-0.971)">
            <rect x="114.719" y="67.322" width="1.473" height="11.085"/>
        </g>
        <g transform="matrix(1,0,0,1,107.4897,80.1404)">
            <path d="M0,-7.585L-6.169,0L0,0L0,-7.585Z" style="fill-rule:nonzero;"/>
        </g>
        <g transform="matrix(-1,0,0,1,84.8,33.783)">
            <rect x="38.039" y="49.08" width="2.722" height="12.815"/>
        </g>
        <g transform="matrix(1,0,0,1,93.0464,54.181)">
            <path d="M0,25.994L-54.169,25.994L-49.248,18.758L-50.953,16.071L-45.631,13.746C-45.631,13.746 -34.262,16.898 -22.428,16.071L-20.361,13.746C-20.361,13.746 -38.603,13.85 -44.081,10.541C-44.081,10.541 -40.102,9.147 -37.052,7.079C-36.536,6.046 -35.967,6.098 -34.624,6.098C-33.28,6.098 -22.997,6.821 -19.172,6.563L-11.989,0.671L-0.672,0L4.289,5.065L10.646,1.809L2.945,10.955C2.945,10.955 -14.676,8.888 -19.741,20.774L-4.651,20.774L0,25.994Z" style="fill-rule:nonzero;"/>
        </g>
        <g transform="matrix(0,1,1,0,82.5972,70.1802)">
            <path d="M-0.326,-1.772L2.552,-1.772L2.552,-0.326L-1.105,-0.326C-0.821,-0.944 -0.544,-1.426 -0.326,-1.772" style="fill-rule:nonzero;"/>
        </g>
        <g transform="matrix(0,1,1,0,88.5805,69.4784)">
            <path d="M-1.529,-2.976L3.254,-2.976L3.254,-1.529L-1.807,-1.529C-1.728,-2.04 -1.633,-2.522 -1.529,-2.976" style="fill-rule:nonzero;"/>
        </g>
        <g transform="matrix(0,1,1,0,93.5363,69.1075)">
            <path d="M-1.704,-3.151L3.155,-3.151L1.317,-1.705L-1.679,-1.705C-1.702,-2.204 -1.708,-2.685 -1.704,-3.151" style="fill-rule:nonzero;"/>
        </g>
        <g transform="matrix(1,0,0,1,93.1323,52.8555)">
            <path d="M0,-1.138L1.688,0.447L4.616,-1.431L4.616,3.03L5.03,3.583L6.545,3.03L6.545,-1.413L13.677,-1.413L14.606,-2.275C14.606,-2.275 3.479,-4.721 0,-1.138" style="fill-rule:nonzero;"/>
        </g>
        <g transform="matrix(1,0,0,1,94.7344,45.3788)">
            <path d="M0,3.617C0,3.617 2.756,1.671 12.403,3.738C12.403,3.738 9.113,0.051 5.495,-0.121C3.496,-0.087 0.964,2.188 0,3.617" style="fill-rule:nonzero;"/>
        </g>
        <g transform="matrix(0.738932,0.67378,0.67378,-0.738932,133.987459,48.595235)">
            <path d="M-0.137,-3.884L10.96,-3.884L11.255,-1.703C11.255,-1.703 3.923,0.611 -0.308,0.343L-0.137,-3.884Z" style="fill-rule:nonzero;"/>
        </g>
        <g transform="matrix(0,-1,-1,0,119.918,47.7907)">
            <path d="M-1.188,-1.188C-1.845,-1.188 -2.376,-0.656 -2.376,0C-2.376,0.656 -1.845,1.188 -1.188,1.188C-0.532,1.188 0,0.656 0,0C0,-0.656 -0.532,-1.188 -1.188,-1.188" style="fill-rule:nonzero;"/>
        </g>
        <g transform="matrix(1,0,0,1,128.6001,15.7973)">
            <path d="M0,32.596L-4.29,29.081L18.965,0.866L23.15,3.502L0,32.596ZM24.029,2.391C22.815,1.667 17.647,-1.589 17.647,-1.589C17.647,-1.589 17.17,-1.86 16.433,-1.123C15.696,-0.386 -7.726,27.506 -7.726,27.506C-7.726,27.506 -6.667,29.108 -7.726,31.226L-6.873,32.105L-5.143,30.219L-0.775,33.888C-0.775,33.888 0.231,34.456 0.955,33.526C1.873,32.609 24.649,3.941 24.649,3.941C24.649,3.941 25.244,3.114 24.029,2.391" style="fill-rule:nonzero;"/>
        </g>
        <g transform="matrix(1,0,0,1,115.9214,28.4293)">
            <path d="M0,16.484L-18.19,1.705L-15.761,-1.568L3.842,12.23L0,16.484ZM5.029,11.265C4.264,10.498 -15.004,-2.705 -15.004,-2.705C-15.004,-2.705 -16.071,-3.394 -16.794,-2.533C-17.518,-1.672 -20.102,1.963 -20.102,1.963C-20.102,1.963 -20.653,2.963 -19.93,3.634C-19.206,4.306 -2.032,19.757 -2.032,19.757C-2.032,19.757 -0.138,18.344 1.93,19.878L2.735,18.993L0.947,17.397L5.341,12.591C5.341,12.591 5.797,12.032 5.029,11.265" style="fill-rule:nonzero;"/>
        </g>
        <g transform="matrix(1,0,0,1,143.7153,50.3237)">
            <path d="M0,29.153L-23.953,7.371L-20.36,2.565L4.264,23.985L0,29.153ZM6.641,21.57C5.864,21.014 -19.663,-2.016 -19.663,-2.016C-19.663,-2.016 -21.084,-0.535 -21.782,-0.871L-22.609,0.446L-21.394,1.557L-25.142,6.545C-25.142,6.545 -25.864,7.526 -24.985,8.353C-24.107,9.179 -0.724,30.264 -0.724,30.264C-0.724,30.264 0.181,31.169 1.008,30.264C1.834,29.361 6.796,23.054 6.796,23.054C6.796,23.054 7.416,22.125 6.641,21.57" style="fill-rule:nonzero;"/>
        </g>
        <g transform="matrix(1,0,0,1,96.4053,52.5113)">
            <path d="M0,24.735L-2.894,21.84L15.847,-1.104L18.637,1.67L0,24.735ZM22.634,-1.242L21.74,-2.137L19.568,0.59L16.64,-2.344C16.64,-2.344 15.744,-3.136 15.02,-2.344C14.296,-1.551 -4.203,21.083 -4.203,21.083C-4.203,21.083 -4.823,21.84 -4.203,22.599C-3.583,23.357 0.275,27.181 0.275,27.181C0.275,27.181 0.758,27.871 1.274,27.181C1.792,26.492 21.888,2.1 21.888,2.1C21.888,2.1 21.415,-0.089 22.634,-1.242" style="fill-rule:nonzero;"/>
        </g>
        <g transform="matrix(1,0,0,1,51.2739,95.7015)">
            <path d="M0,-12.839L0,0L5.753,0L5.753,-10.325L8.062,-10.325L8.062,-0.024L32.488,-0.024C32.708,-10.435 32.625,-10.359 32.625,-10.359L38.896,-10.359L38.896,-0.024L40.894,-0.024L40.894,-10.325L47.164,-10.324L47.164,-0.024L55.122,-0.024L56.216,-8.189L56.216,-12.839L0,-12.839Z" style="fill-rule:nonzero;"/>
        </g>
    </g>
</svg>
