<svg width="756" height="569" viewBox="137 149 756 569" version="1.1" xmlns="http://www.w3.org/2000/svg" xmlns:xlink="http://www.w3.org/1999/xlink" xml:space="preserve" xmlns:serif="http://www.serif.com/" style="fill-rule:evenodd;clip-rule:evenodd;stroke-linejoin:round;stroke-miterlimit:2;"><g transform="matrix(8.385965,0,0,8.385965,638.331354,640.57259)"><g>
            <g transform="matrix(0.781547,0,0,0.781547,-2.525674,-0.636456)">
                <path d="M0,9.921L0.827,1.792C0.827,1.792 21.979,-0.069 30.869,2.274L32.108,9.99L16.398,9.99L16.398,5.925C16.398,5.925 12.128,1.998 7.924,5.925L7.924,9.99L0,9.921Z" style="fill:white;fill-rule:nonzero;"/>
            </g>
            <g transform="matrix(0.781547,0,0,0.781547,9.092966,-7.244674)">
                <path d="M13.568,-23.449L-0.379,-25.344C-0.461,-22.693 -0.319,-17.287 -0.245,-13.718L0,2.141L-5.582,2.141L-5.679,-13.913L-0.245,-13.718C-0.245,-13.718 1.498,-21.652 0.222,-24.543C0.068,-24.89 -0.379,-25.344 -0.379,-25.344L-13.46,-24.646L-14.057,-8.013L-14.057,6.488L-14.039,6.319C-14.039,6.319 7.061,4.463 15.968,6.792L13.568,-23.449Z" style="fill:white;fill-rule:nonzero;"/>
            </g>
            <g transform="matrix(-0.781547,0,0,0.866153,97.135614,-74.997961)">
                <rect x="114.719" y="67.322" width="1.473" height="11.085" style="fill:white;"/>
            </g>
            <g transform="matrix(-0.781547,0,0,0.781547,-21.746348,-41.202363)">
                <rect x="38.039" y="49.08" width="2.722" height="12.815" style="fill:white;"/>
            </g>
            <g transform="matrix(0.781547,0,0,0.781547,-15.301396,-25.260358)">
                <path d="M14.4,26.234L-54.169,25.994L-49.248,18.758L-50.953,16.071L-45.631,13.746C-45.631,13.746 -34.262,16.898 -22.428,16.071L-20.361,13.746C-20.361,13.746 -38.603,13.85 -44.081,10.541C-44.081,10.541 -40.102,9.147 -37.052,7.079C-36.536,6.046 -35.967,6.098 -34.624,6.098C-33.28,6.098 -22.997,6.821 -19.172,6.563L-11.989,0.671L-0.672,0L4.289,5.065L15.446,-0.591L14.549,20.774L10.177,20.774C10.177,20.774 -2.054,0 -19.741,20.774L14.549,20.774L14.4,26.234Z" style="fill:white;fill-rule:nonzero;"/>
            </g>
            <g transform="matrix(0,0.627716,0.781547,0,-25.531226,-11.613285)">
                <path d="M-0.326,-1.772L2.552,-1.772L2.552,-0.326L-1.703,-0.326C-1.418,-1.184 -0.326,-1.772 -0.326,-1.772" style="fill:white;fill-rule:nonzero;"/>
            </g>
            <g transform="matrix(0,0.781547,0.781547,0,-10.713087,-11.818367)">
                <path d="M-1.526,-1.772L2.552,-1.772L2.552,-0.326L-0.386,-0.326" style="fill:white;fill-rule:nonzero;"/>
            </g>
            <g transform="matrix(0,0.81861,0.781547,0,-20.479851,-12.675029)">
                <path d="M-1.529,-2.976L3.254,-2.976L3.254,-1.529L-1.807,-1.529C-1.728,-2.28 -1.151,-2.976 -1.151,-2.976" style="fill:white;fill-rule:nonzero;"/>
            </g>
            <g transform="matrix(0,0.842947,0.781547,0,-16.606658,-13.057762)">
                <path d="M-1.704,-3.151L3.396,-3.151L3.476,-1.704L-2.399,-1.704C-2.399,-1.704 -2.908,-2.445 -2.424,-3.151" style="fill:white;fill-rule:nonzero;"/>
            </g>
            <g transform="matrix(0,0.781547,0.781547,0,-12.480087,-12.656733)">
                <path d="M-1.704,-3.151L3.395,-3.151L3.476,-1.704L-1.679,-1.705C-2.422,-1.963 -2.428,-2.685 -2.424,-3.151" style="fill:white;fill-rule:nonzero;"/>
            </g>
            <g transform="matrix(0.781547,0,0,0.781547,-15.234261,-26.296299)">
                <path d="M0,-1.138L1.688,0.447L4.616,-1.431L4.616,3.03L5.03,3.583L6.545,3.03L6.545,-1.413L13.677,-1.413L14.606,-2.275C14.606,-2.275 3.479,-4.721 0,-1.138" style="fill:white;fill-rule:nonzero;"/>
            </g>
            <g transform="matrix(0.781547,0,0,0.781547,-13.794572,-32.139695)">
                <path d="M0,3.617C0,3.617 2.756,1.671 12.403,3.738C12.403,3.738 9.113,0.051 5.495,-0.121C3.496,-0.087 0.964,2.188 0,3.617" style="fill:white;fill-rule:nonzero;"/>
            </g>
            <g transform="matrix(1.76476,0,0,1.76476,-1.904929,-35.307646)">
                <path d="M-0.106,4.092C-0.106,4.092 6.822,2.305 12.773,4.53C12.773,4.53 12.291,-1.448 5.759,-1.705C2.598,-1.83 0.33,1.396 -0.106,4.092Z" style="fill:white;fill-rule:nonzero;"/>
            </g>
            <g transform="matrix(0.781547,0,0,0.781547,-47.948586,7.189882)">
                <path d="M0,-12.839L0,0L5.753,0L5.753,-10.325L8.062,-10.325L8.062,-0.024C8.062,-0.024 32.074,-0.318 32.625,-0.177L32.625,-10.359L38.896,-10.359L38.896,-0.024L40.894,-0.024L40.894,-10.325L47.164,-10.324L47.164,-0.024L55.122,-0.024L56.216,-8.189L56.216,-12.839L0,-12.839Z" style="fill:white;fill-rule:nonzero;"/>
            </g>
        </g></g></svg>