<svg width="100%" height="100%" viewBox="133 115 803 607" version="1.1" xmlns="http://www.w3.org/2000/svg" xmlns:xlink="http://www.w3.org/1999/xlink" xml:space="preserve" xmlns:serif="http://www.serif.com/" style="fill-rule:evenodd;clip-rule:evenodd;stroke-linejoin:round;stroke-miterlimit:2;"><g transform="matrix(8.385965,0,0,8.385965,638.331354,640.57259)"><g>
            <g transform="matrix(0,-0.844805,-0.844805,0,4.733837,-31.637939)">
                <path d="M-1.188,-1.188C-1.845,-1.188 -2.376,-0.656 -2.376,0C-2.376,0.656 -1.845,1.188 -1.188,1.188C-0.532,1.188 0,0.656 0,0C0,-0.656 -0.532,-1.188 -1.188,-1.188" style="fill:white;fill-rule:nonzero;"/>
            </g>
            <g transform="matrix(0.844805,0,0,0.844805,12.068519,-58.666124)">
                <path d="M0,32.596L-4.29,29.081L18.965,0.866L23.15,3.502L0,32.596ZM24.029,2.391C22.815,1.667 17.647,-1.589 17.647,-1.589C17.647,-1.589 17.17,-1.86 16.433,-1.123C15.696,-0.386 -7.726,27.506 -7.726,27.506C-7.726,27.506 -6.667,29.108 -7.726,31.226L-6.873,32.105L-5.143,30.219L-0.775,33.888C-0.775,33.888 0.231,34.456 0.955,33.526C1.873,32.609 24.649,3.941 24.649,3.941C24.649,3.941 25.244,3.114 24.029,2.391" style="fill:white;fill-rule:nonzero;"/>
            </g>
            <g transform="matrix(1.031039,0,0,1.030594,0.33779,-51.687669)">
                <path d="M0,16.484L-18.19,1.705L-15.761,-1.568L3.842,12.23L0,16.484ZM5.029,11.265C4.264,10.498 -15.004,-2.705 -15.004,-2.705C-15.004,-2.705 -16.071,-3.394 -16.794,-2.533C-17.518,-1.672 -20.102,1.963 -20.102,1.963C-20.102,1.963 -20.653,2.963 -19.93,3.634C-19.206,4.306 -2.032,19.757 -2.032,19.757C-2.032,19.757 -0.138,18.344 1.93,19.878L2.735,18.993L0.947,17.397L5.341,12.591C5.341,12.591 5.797,12.032 5.029,11.265" style="fill:white;fill-rule:nonzero;"/>
            </g>
            <g transform="matrix(0.844805,0,0,0.844805,24.837916,-29.498048)">
                <path d="M0,29.153L-23.953,7.371L-20.36,2.565L4.264,23.985L0,29.153ZM6.641,21.57C5.864,21.014 -19.663,-2.016 -19.663,-2.016C-19.663,-2.016 -21.084,-0.535 -21.782,-0.871L-22.609,0.446L-21.394,1.557L-25.142,6.545C-25.142,6.545 -25.864,7.526 -24.985,8.353C-24.107,9.179 -0.724,30.264 -0.724,30.264C-0.724,30.264 0.181,31.169 1.008,30.264C1.834,29.361 6.796,23.054 6.796,23.054C6.796,23.054 7.416,22.125 6.641,21.57" style="fill:white;fill-rule:nonzero;"/>
            </g>
            <g transform="matrix(0.844805,0,0,0.844805,-15.12981,-27.649953)">
                <path d="M0,24.735L-2.894,21.84L15.847,-1.104L18.637,1.67L0,24.735ZM22.634,-1.242L21.74,-2.137L19.568,0.59L16.64,-2.344C16.64,-2.344 15.744,-3.136 15.02,-2.344C14.296,-1.551 -4.203,21.083 -4.203,21.083C-4.203,21.083 -4.823,21.84 -4.203,22.599C-3.583,23.357 0.275,27.181 0.275,27.181C0.275,27.181 0.758,27.871 1.274,27.181C1.792,26.492 21.888,2.1 21.888,2.1C21.888,2.1 21.415,-0.089 22.634,-1.242" style="fill:white;fill-rule:nonzero;"/>
            </g>
        </g></g></svg>